<svg width="495" height="162" viewBox="0 0 495 162" fill="none" xmlns="http://www.w3.org/2000/svg">
<path d="M66.6309 56.7907H49.9711C43.6839 56.5949 42.7543 58.3319 47.1822 62.0014C55.1085 68.9491 58.9982 75.7011 58.8514 82.2574C58.7046 88.8137 54.8149 92.7279 47.1822 94H0.945763V78.2209H30.1555C37.0787 78.4166 37.9594 76.484 32.7975 72.423C24.2842 64.5946 20.6635 57.4023 21.9356 50.846C23.2078 44.2897 27.2198 41.0115 33.9718 41.0115H66.6309V56.7907ZM111.179 41.0115V56.7907H94.3728V94H77.1258V56.7907H60.3193V41.0115H111.179ZM107.877 94L125.307 41.0115H151.618L169.342 94H149.306L145.967 84.4591H130.224L126.885 94H107.877ZM138.518 52.7541L130.922 73.744H145.526L138.518 52.7541ZM168.645 94V41.0115H203.139C207.395 41.403 210.894 42.5283 213.633 44.3875C216.373 46.2468 218.379 48.7421 219.652 51.8734C220.63 56.5705 220.679 60.1911 219.798 62.7353C218.918 65.2796 217.376 67.4079 215.175 69.1204C212.973 70.8328 209.817 72.1783 205.707 73.1569L209.67 78.2209H225.523V94H204.606L187.8 76.4962V94H168.645ZM187.8 54.222V63.983H201.157C201.866 63.983 202.637 63.7261 203.469 63.2124C204.301 62.6742 204.741 61.3409 204.79 59.2126C204.668 57.1821 204.166 55.8488 203.285 55.2127C202.429 54.5522 201.707 54.222 201.12 54.222H187.8ZM295.098 71.5423L289.52 94H272.273L260.09 56.7907H249.081V41.0115H273.374L280.64 63.9096L286.951 41.0115H302.804L310.18 63.9096L315.097 41.0115H332.16L319.06 94H301.813L295.098 71.5423ZM321.298 94L338.729 41.0115H365.04L382.764 94H362.728L359.388 84.4591H343.646L340.307 94H321.298ZM351.939 52.7541L344.343 73.744H358.948L351.939 52.7541ZM382.066 94V41.0115H416.56C420.817 41.403 424.315 42.5283 427.055 44.3875C429.795 46.2468 431.801 48.7421 433.073 51.8734C434.052 56.5705 434.101 60.1911 433.22 62.7353C432.339 65.2796 430.798 67.4079 428.596 69.1204C426.395 70.8328 423.239 72.1783 419.129 73.1569L423.092 78.2209H438.944V94H418.028L401.221 76.4962V94H382.066ZM401.221 54.222V63.983H414.579C415.288 63.983 416.059 63.7261 416.89 63.2124C417.722 62.6742 418.163 61.3409 418.211 59.2126C418.089 57.1821 417.588 55.8488 416.707 55.2127C415.851 54.5522 415.129 54.222 414.542 54.222H401.221ZM480.631 56.7907H467.714C461.427 56.5949 460.497 58.3319 464.925 62.0014C472.851 68.9491 476.741 75.7011 476.594 82.2574C476.447 88.8137 472.558 92.7279 464.925 94H436.743V78.2209H447.898C454.821 78.4166 455.702 76.484 450.54 72.423C442.027 64.5946 438.406 57.4023 439.678 50.846C440.95 44.2897 444.963 41.0115 451.715 41.0115H480.631V56.7907Z" fill="#FFF066"/>
<path d="M68.709 140.121H73.8359V125.268H80.5449V126.146H74.7148V141H67.8301V126.146H62V125.268H68.709V140.121ZM62 119.848L80.5449 119.862V120.727H62V119.848ZM93.8457 127.143V119.848H100.73V141H93.8457V133.383H88.3086V141H81.4238V119.848H88.3086V127.143H93.8457ZM82.3027 120.727V140.121H87.4297V132.504H94.7246V140.121H99.8516V120.727H94.7246V128.021H87.4297V120.727H82.3027ZM101.609 141V119.848H119.744V126.146H108.494V128.578H115.76V132.27H108.494V134.701H120.652V141H101.609ZM102.488 120.727V140.121H119.773V135.58H107.615V131.42H114.881V129.457H107.615V125.268H118.865V120.727H102.488ZM155.428 120.727H146.932C145.33 120.746 143.865 120.937 142.537 121.298C141.209 121.659 140.032 122.24 139.007 123.041C137.981 123.842 137.166 124.828 136.561 126C135.955 127.172 135.633 128.544 135.594 130.116C135.574 132.333 136.072 134.184 137.088 135.668C138.104 137.152 139.471 138.256 141.189 138.979C142.908 139.701 144.822 140.082 146.932 140.121H155.428V135.58H149.686C148.357 135.6 147.303 135.565 146.521 135.478C145.74 135.39 144.969 135.243 144.207 135.038C143.445 134.833 142.806 134.379 142.288 133.676C141.771 132.973 141.468 131.908 141.38 130.482C141.487 128.842 141.819 127.743 142.376 127.187C142.933 126.63 143.528 126.225 144.163 125.971C144.798 125.717 145.501 125.546 146.272 125.458C147.054 125.36 148.191 125.297 149.686 125.268H155.428V120.727ZM156.307 134.701V141H146.932C144.637 141 142.562 140.595 140.706 139.784C138.851 138.964 137.386 137.738 136.312 136.107C135.247 134.477 134.715 132.479 134.715 130.116C134.715 128.456 135.032 126.977 135.667 125.678C136.312 124.369 137.2 123.285 138.333 122.426C139.466 121.557 140.765 120.912 142.229 120.492C143.704 120.062 145.271 119.848 146.932 119.848H156.307V126.146H149.686C148.201 126.146 147.103 126.19 146.39 126.278C145.677 126.366 145.042 126.513 144.485 126.718C143.929 126.923 143.436 127.279 143.006 127.787C142.576 128.295 142.327 129.193 142.259 130.482C142.308 131.732 142.557 132.626 143.006 133.163C143.455 133.7 144.002 134.057 144.646 134.232C145.291 134.408 145.955 134.53 146.639 134.599C147.322 134.667 148.338 134.701 149.686 134.701H156.307ZM179.861 130.541C179.822 128.412 179.354 126.601 178.455 125.106C177.566 123.612 176.272 122.479 174.573 121.708C172.884 120.937 170.872 120.551 168.538 120.551C166.78 120.551 165.208 120.771 163.821 121.21C162.435 121.649 161.263 122.289 160.306 123.129C159.349 123.969 158.621 125.009 158.123 126.249C157.635 127.479 157.371 128.905 157.332 130.526C157.371 132.675 157.82 134.491 158.68 135.976C159.549 137.46 160.823 138.583 162.503 139.345C164.183 140.106 166.194 140.487 168.538 140.487C170.882 140.487 172.898 140.111 174.588 139.359C176.277 138.598 177.566 137.47 178.455 135.976C179.354 134.472 179.822 132.66 179.861 130.541ZM180.74 130.541C180.74 132.855 180.257 134.828 179.29 136.459C178.323 138.09 176.922 139.315 175.086 140.136C173.26 140.956 171.077 141.366 168.538 141.366C165.999 141.366 163.816 140.956 161.99 140.136C160.174 139.306 158.797 138.085 157.859 136.474C156.922 134.853 156.453 132.875 156.453 130.541C156.453 128.773 156.722 127.221 157.259 125.883C157.796 124.535 158.582 123.402 159.617 122.484C160.652 121.566 161.922 120.873 163.426 120.404C164.93 119.926 166.634 119.687 168.538 119.687C171.067 119.687 173.25 120.106 175.086 120.946C176.922 121.776 178.323 123.007 179.29 124.638C180.257 126.259 180.74 128.227 180.74 130.541ZM163.426 130.57C163.426 126.859 165.086 125.004 168.406 125.004C170.516 125.004 171.897 125.561 172.552 126.674C173.206 127.777 173.572 129.076 173.65 130.57C173.572 131.615 173.44 132.514 173.255 133.266C173.069 134.008 172.596 134.672 171.834 135.258C171.082 135.834 169.939 136.122 168.406 136.122C166.434 136.122 165.11 135.57 164.437 134.467C163.763 133.354 163.426 132.055 163.426 130.57ZM164.378 130.614C164.378 131.854 164.651 132.938 165.198 133.866C165.745 134.784 166.834 135.243 168.465 135.243C169.715 135.243 170.652 134.999 171.277 134.511C171.902 134.022 172.293 133.471 172.449 132.855C172.605 132.24 172.708 131.493 172.757 130.614C172.708 129.374 172.41 128.295 171.863 127.377C171.326 126.459 170.193 126 168.465 126C165.74 126 164.378 127.538 164.378 130.614ZM181.766 141V119.848H188.65L193.279 128.637L197.879 119.848H204.764V141H197.879V132.211L193.455 141H193.074L188.65 132.211V141H181.766ZM182.645 120.727V140.121H187.771V131.244H189.119L193.221 139.77L197.396 131.332H198.758V140.121H203.885V120.727H198.392L193.543 129.867H193.016L188.138 120.727H182.645ZM205.643 141V119.848H219.412C221.111 120.062 222.483 120.502 223.528 121.166C224.573 121.83 225.311 122.641 225.74 123.598C226.17 124.555 226.424 125.37 226.502 126.044C226.58 126.718 226.6 127.382 226.561 128.036C226.521 128.69 226.38 129.354 226.136 130.028C225.892 130.702 225.232 131.469 224.158 132.328C223.084 133.188 221.668 133.749 219.91 134.013H213.289V141H205.643ZM212.923 124.755H218.841C219.104 124.755 219.427 124.911 219.808 125.224C220.188 125.526 220.413 126.161 220.481 127.128C220.442 128.134 220.237 128.764 219.866 129.018C219.505 129.271 219.168 129.398 218.855 129.398H212.923V124.755ZM206.521 140.121H212.41V133.134H219.91C221.57 132.792 222.84 132.255 223.719 131.522C224.598 130.79 225.184 129.936 225.477 128.959C225.77 127.982 225.833 127.06 225.667 126.19C225.501 125.321 225.267 124.564 224.964 123.92C224.661 123.275 224.065 122.631 223.177 121.986C222.288 121.342 221.033 120.922 219.412 120.727H206.521V140.121ZM213.831 125.604V128.593H218.357C218.592 128.593 218.851 128.515 219.134 128.358C219.427 128.192 219.583 127.777 219.603 127.113C219.554 126.508 219.378 126.107 219.075 125.912C218.782 125.707 218.538 125.604 218.343 125.604H213.831ZM227.645 141V119.848H234.529V134.701H245.984V141H227.645ZM228.523 120.727V140.121H245.105V135.58H233.65V120.727H228.523ZM246.863 141V119.848H264.998V126.146H253.748V128.578H261.014V132.27H253.748V134.701H265.906V141H246.863ZM247.742 120.727V140.121H265.027V135.58H252.869V131.42H260.135V129.457H252.869V125.268H264.119V120.727H247.742ZM284.451 119.848V126.146H278.621V141H271.736V126.146H265.906V119.848H284.451ZM266.785 120.727V125.268H272.615V140.121H277.742V125.268H283.572V120.727H266.785ZM285.33 141V119.848H303.465V126.146H292.215V128.578H299.48V132.27H292.215V134.701H304.373V141H285.33ZM286.209 120.727V140.121H303.494V135.58H291.336V131.42H298.602V129.457H291.336V125.268H302.586V120.727H286.209ZM319.168 141V119.848H332.938C334.637 120.062 336.009 120.502 337.054 121.166C338.099 121.83 338.836 122.641 339.266 123.598C339.695 124.555 339.949 125.37 340.027 126.044C340.105 126.718 340.125 127.382 340.086 128.036C340.047 128.69 339.905 129.354 339.661 130.028C339.417 130.702 338.758 131.469 337.684 132.328C336.609 133.188 335.193 133.749 333.436 134.013H326.814V141H319.168ZM326.448 124.755H332.366C332.63 124.755 332.952 124.911 333.333 125.224C333.714 125.526 333.938 126.161 334.007 127.128C333.968 128.134 333.763 128.764 333.392 129.018C333.03 129.271 332.693 129.398 332.381 129.398H326.448V124.755ZM320.047 140.121H325.936V133.134H333.436C335.096 132.792 336.365 132.255 337.244 131.522C338.123 130.79 338.709 129.936 339.002 128.959C339.295 127.982 339.358 127.06 339.192 126.19C339.026 125.321 338.792 124.564 338.489 123.92C338.187 123.275 337.591 122.631 336.702 121.986C335.813 121.342 334.559 120.922 332.938 120.727H320.047V140.121ZM327.356 125.604V128.593H331.883C332.117 128.593 332.376 128.515 332.659 128.358C332.952 128.192 333.108 127.777 333.128 127.113C333.079 126.508 332.903 126.107 332.601 125.912C332.308 125.707 332.063 125.604 331.868 125.604H327.356ZM363.846 130.541C363.807 128.412 363.338 126.601 362.439 125.106C361.551 123.612 360.257 122.479 358.558 121.708C356.868 120.937 354.856 120.551 352.522 120.551C350.765 120.551 349.192 120.771 347.806 121.21C346.419 121.649 345.247 122.289 344.29 123.129C343.333 123.969 342.605 125.009 342.107 126.249C341.619 127.479 341.355 128.905 341.316 130.526C341.355 132.675 341.805 134.491 342.664 135.976C343.533 137.46 344.808 138.583 346.487 139.345C348.167 140.106 350.179 140.487 352.522 140.487C354.866 140.487 356.883 140.111 358.572 139.359C360.262 138.598 361.551 137.47 362.439 135.976C363.338 134.472 363.807 132.66 363.846 130.541ZM364.725 130.541C364.725 132.855 364.241 134.828 363.274 136.459C362.308 138.09 360.906 139.315 359.07 140.136C357.244 140.956 355.062 141.366 352.522 141.366C349.983 141.366 347.801 140.956 345.975 140.136C344.158 139.306 342.781 138.085 341.844 136.474C340.906 134.853 340.438 132.875 340.438 130.541C340.438 128.773 340.706 127.221 341.243 125.883C341.78 124.535 342.566 123.402 343.602 122.484C344.637 121.566 345.906 120.873 347.41 120.404C348.914 119.926 350.618 119.687 352.522 119.687C355.052 119.687 357.234 120.106 359.07 120.946C360.906 121.776 362.308 123.007 363.274 124.638C364.241 126.259 364.725 128.227 364.725 130.541ZM347.41 130.57C347.41 126.859 349.07 125.004 352.391 125.004C354.5 125.004 355.882 125.561 356.536 126.674C357.19 127.777 357.557 129.076 357.635 130.57C357.557 131.615 357.425 132.514 357.239 133.266C357.054 134.008 356.58 134.672 355.818 135.258C355.066 135.834 353.924 136.122 352.391 136.122C350.418 136.122 349.095 135.57 348.421 134.467C347.747 133.354 347.41 132.055 347.41 130.57ZM348.362 130.614C348.362 131.854 348.636 132.938 349.183 133.866C349.729 134.784 350.818 135.243 352.449 135.243C353.699 135.243 354.637 134.999 355.262 134.511C355.887 134.022 356.277 133.471 356.434 132.855C356.59 132.24 356.692 131.493 356.741 130.614C356.692 129.374 356.395 128.295 355.848 127.377C355.311 126.459 354.178 126 352.449 126C349.725 126 348.362 127.538 348.362 130.614ZM365.75 141V119.848H379.52C381.219 120.004 382.581 120.424 383.606 121.107C384.632 121.791 385.33 122.45 385.701 123.085C386.072 123.72 386.336 124.496 386.492 125.414C386.648 126.332 386.546 127.333 386.185 128.417C385.823 129.501 385.203 130.385 384.324 131.068C383.445 131.752 382.186 132.289 380.545 132.68L382.127 134.701H387.576V141H380.105L373.396 134.013V141H365.75ZM366.629 140.121H372.518V133.134H373.938L380.618 140.121H386.697V135.58H381.614L379.666 133.192V131.962C381.678 131.552 383.05 131.039 383.782 130.424C384.524 129.809 385.047 129.057 385.35 128.168C385.662 127.279 385.76 126.43 385.643 125.619C385.535 124.809 385.325 124.14 385.013 123.612C384.71 123.075 384.095 122.494 383.167 121.869C382.239 121.244 381.023 120.863 379.52 120.727H366.629V140.121ZM373.03 124.755H378.948C379.212 124.755 379.534 124.911 379.915 125.224C380.296 125.526 380.521 126.161 380.589 127.128C380.55 128.134 380.345 128.764 379.974 129.018C379.612 129.271 379.275 129.398 378.963 129.398H373.03V124.755ZM373.938 125.604V128.593H378.465C378.699 128.593 378.958 128.515 379.241 128.358C379.534 128.192 379.69 127.777 379.71 127.113C379.661 126.508 379.485 126.107 379.183 125.912C378.89 125.707 378.646 125.604 378.45 125.604H373.938ZM406.121 119.848V126.146H400.291V141H393.406V126.146H387.576V119.848H406.121ZM388.455 120.727V125.268H394.285V140.121H399.412V125.268H405.242V120.727H388.455ZM406.121 141L413.079 119.848H423.582L430.657 141H422.659L421.326 137.191H415.042L413.709 141H406.121ZM418.353 124.228L421.355 132.914H415.115L418.353 124.228ZM407.352 140.121H413.123L414.485 136.312H422.029L423.406 140.121H429.456L423.011 120.727H413.812L407.352 140.121ZM416.492 132.035H419.979L418.367 127.318L416.492 132.035ZM430.672 141V119.848H437.557V134.701H449.012V141H430.672ZM431.551 120.727V140.121H448.133V135.58H436.678V120.727H431.551Z" fill="white"/>
</svg>
