<svg width="30" height="30" viewBox="0 0 30 30" fill="none" xmlns="http://www.w3.org/2000/svg">
<path d="M14.0624 28.125H1.87501V1.87496H14.0624C14.5799 1.87496 14.9999 1.45492 14.9999 0.937478C14.9999 0.420034 14.5798 0 14.0624 0H0.937467C0.420029 0 0 0.419956 0 0.937478V29.0625C0 29.58 0.420029 30 0.937467 30H14.0623C14.5798 30 14.9998 29.58 14.9998 29.0625C14.9999 28.545 14.5798 28.125 14.0624 28.125Z" fill="#BBBBBB"/>
<path d="M29.728 14.3455L23.2593 7.78395C22.8927 7.41363 22.2993 7.41457 21.9337 7.78395C21.5671 8.15333 21.5671 8.7533 21.9337 9.12268L26.8086 14.068H7.5029C6.98538 14.068 6.56543 14.4918 6.56543 15.0149C6.56543 15.5381 6.98546 15.9618 7.5029 15.9618H26.8086L21.9337 20.9072C21.5671 21.2775 21.5671 21.8765 21.9337 22.2459C22.3002 22.6162 22.8936 22.6162 23.2593 22.2459L29.727 15.6843C30.0889 15.3196 30.0927 14.7093 29.728 14.3455Z" fill="#BBBBBB"/>
</svg>
